<?xml version="1.0" standalone="no"?>
<!DOCTYPE svg PUBLIC "-//W3C//DTD SVG 20010904//EN"
 "http://www.w3.org/TR/2001/REC-SVG-20010904/DTD/svg10.dtd">
<svg version="1.0" xmlns="http://www.w3.org/2000/svg"
 width="512.000000pt" height="512.000000pt" viewBox="0 0 512.000000 512.000000"
 preserveAspectRatio="xMidYMid meet">
<metadata>
Created by potrace 1.14, written by Peter Selinger 2001-2017
</metadata>
<g transform="translate(0.000000,512.000000) scale(0.100000,-0.100000)"
fill="#000000" stroke="none">
<path d="M0 2560 l0 -2560 2560 0 2560 0 0 2560 0 2560 -2560 0 -2560 0 0
-2560z m1067 256 c194 -450 354 -821 356 -823 2 -2 159 368 348 822 l344 825
273 0 272 0 0 -59 0 -59 -97 -7 c-112 -7 -142 -15 -156 -37 -7 -11 9 -309 51
-933 34 -505 63 -919 65 -921 1 -1 59 -6 127 -11 l125 -8 3 -62 3 -63 -436 0
-436 0 3 63 3 62 110 8 c141 10 155 20 155 116 0 57 -86 1364 -93 1400 -1 8
-168 -360 -372 -818 -355 -799 -371 -832 -395 -829 -23 3 -56 73 -395 822
-313 693 -370 814 -373 784 -4 -43 -49 -1462 -47 -1465 0 -1 58 -6 128 -9
l127 -7 0 -64 0 -63 -360 0 -361 0 3 63 3 62 102 11 c113 12 148 28 157 71 7
32 116 1695 116 1766 l0 47 -115 0 -115 0 0 70 0 70 262 -2 261 -3 354 -819z
m2995 809 c313 -41 545 -150 738 -344 133 -134 200 -251 252 -439 19 -67 22
-103 22 -272 -1 -214 -10 -266 -73 -425 -131 -327 -445 -559 -866 -641 -77
-15 -170 -18 -657 -21 l-568 -4 0 64 0 64 101 6 c112 7 144 20 156 65 5 15 8
432 8 927 l0 900 -122 3 -123 3 0 64 0 65 509 0 c395 0 535 -3 623 -15z"/>
<path d="M3700 3485 c-8 -2 -55 -7 -103 -10 l-88 -7 3 -851 c3 -843 3 -852 24
-898 26 -55 66 -77 163 -90 207 -27 432 12 604 103 127 68 268 231 329 380 82
203 99 534 39 763 -65 248 -220 438 -439 537 -114 52 -202 69 -367 73 -82 2
-157 2 -165 0z"/>
</g>
</svg>
