<?xml version="1.0" standalone="no"?>
<!DOCTYPE svg PUBLIC "-//W3C//DTD SVG 20010904//EN"
 "http://www.w3.org/TR/2001/REC-SVG-20010904/DTD/svg10.dtd">
<svg version="1.0" xmlns="http://www.w3.org/2000/svg"
 width="500.000000pt" height="500.000000pt" viewBox="0 0 500.000000 500.000000"
 preserveAspectRatio="xMidYMid meet">
<metadata>
Created by potrace 1.14, written by Peter Selinger 2001-2017
</metadata>
<g transform="translate(0.000000,500.000000) scale(0.100000,-0.100000)"
fill="#000000" stroke="none">
<path d="M1200 3551 c0 -5 23 -11 50 -13 92 -9 90 -1 90 -316 l0 -275 -80 -75
c-97 -89 -157 -171 -209 -284 -60 -129 -75 -201 -75 -363 0 -162 15 -234 75
-363 69 -149 170 -268 307 -361 78 -52 123 -74 222 -107 79 -26 97 -28 250
-28 195 -1 246 10 395 83 200 99 462 346 644 607 l43 61 126 6 c221 10 364 62
484 176 50 47 78 84 107 142 58 115 74 199 69 370 l-3 141 60 -4 c123 -10 250
-103 307 -225 137 -291 -88 -608 -409 -579 -46 4 -73 3 -73 -3 0 -15 86 -24
164 -17 234 22 414 248 378 478 -30 196 -182 348 -367 366 l-67 7 -22 61 c-62
171 -171 273 -361 335 -67 22 -85 23 -457 27 -270 2 -388 0 -388 -7 0 -6 14
-11 31 -11 32 0 69 -15 81 -34 4 -6 8 -270 8 -587 0 -649 6 -601 -78 -615 -94
-15 -31 -24 168 -24 116 0 210 -3 210 -7 0 -21 -192 -255 -290 -353 -138 -139
-263 -235 -385 -295 -117 -58 -184 -75 -323 -82 -183 -9 -328 26 -475 114
-365 220 -513 667 -350 1058 39 94 126 217 206 290 l72 67 3 -220 c1 -129 -2
-231 -8 -246 -10 -28 -45 -46 -86 -46 -13 0 -24 -4 -24 -10 0 -6 48 -10 125
-10 77 0 125 4 125 10 0 6 -13 10 -29 10 -15 0 -40 9 -55 21 l-26 20 0 243 0
242 53 31 c56 35 107 56 114 49 3 -2 38 -91 79 -198 41 -106 95 -246 120 -310
25 -65 51 -118 57 -118 7 0 93 217 192 483 98 265 191 514 207 552 l27 70 0
-521 c1 -409 -2 -524 -12 -538 -7 -9 -32 -20 -55 -23 -23 -3 -42 -10 -42 -14
0 -5 92 -9 205 -9 130 0 205 4 205 10 0 6 -16 10 -35 10 -25 0 -44 8 -61 25
l-25 25 3 531 c3 512 4 531 22 545 11 8 37 14 58 14 21 0 38 5 38 10 0 6 -56
10 -149 10 l-150 0 -21 -57 c-180 -485 -323 -863 -326 -861 -1 2 -39 95 -83
208 -86 218 -86 220 -24 220 31 0 32 -1 21 -31 -22 -65 58 -115 108 -68 31 29
30 63 -1 95 -24 24 -31 25 -111 23 l-86 -3 -91 237 -92 237 -152 0 c-84 0
-153 -4 -153 -9z m317 -516 c-1 0 -33 -16 -71 -35 -38 -19 -73 -36 -78 -38 -4
-2 -8 106 -8 240 l1 243 79 -205 c43 -112 78 -204 77 -205z m1605 334 c138
-29 258 -125 323 -260 38 -80 64 -181 47 -187 -6 -2 -29 -16 -51 -32 -72 -52
-178 -199 -475 -652 -51 -78 -61 -88 -87 -88 -37 0 -84 23 -93 45 -3 9 -6 266
-6 570 0 618 -4 587 70 605 52 12 212 12 272 -1z m388 -591 c0 -291 -92 -489
-266 -575 -72 -36 -124 -49 -232 -59 l-83 -7 109 170 c219 343 351 521 420
568 20 14 40 25 44 25 5 0 8 -55 8 -122z"/>
<path d="M1886 1927 c-4 -21 -10 -46 -13 -55 -4 -12 -3 -14 5 -7 6 6 12 21 14
35 4 24 5 24 20 -10 l16 -35 15 35 14 35 11 -35 c11 -39 15 -20 6 29 -8 40
-16 39 -32 -1 l-13 -33 -18 40 -18 40 -7 -38z"/>
<path d="M2103 1910 c0 -30 2 -43 4 -27 2 15 2 39 0 55 -2 15 -4 2 -4 -28z"/>
<path d="M2252 1908 c-12 -29 -16 -45 -8 -35 7 9 21 17 31 17 10 0 24 -8 32
-17 9 -13 9 -5 -3 27 -10 25 -20 49 -24 53 -4 4 -17 -16 -28 -45z m38 0 c0 -5
-7 -8 -15 -8 -17 0 -18 2 -9 25 5 13 8 14 15 3 5 -7 9 -16 9 -20z"/>
<path d="M2452 1948 c-17 -17 -15 -63 2 -78 23 -18 59 -8 75 22 14 24 14 28
-3 47 -21 23 -56 27 -74 9z m68 -18 c20 -38 -12 -70 -54 -54 -16 6 -22 54 -9
67 14 14 53 6 63 -13z"/>
<path d="M2810 1910 c0 -47 2 -50 25 -50 15 0 31 9 41 25 15 23 15 27 0 50
-10 16 -26 25 -41 25 -23 0 -25 -3 -25 -50z m60 21 c13 -25 13 -27 -6 -45 -28
-28 -44 -20 -44 24 0 33 3 40 20 40 10 0 24 -9 30 -19z"/>
<path d="M3022 1908 c-12 -29 -16 -45 -8 -35 7 9 21 17 31 17 10 0 24 -8 32
-17 9 -13 9 -5 -3 27 -10 25 -20 49 -24 53 -4 4 -17 -16 -28 -45z m38 0 c0 -5
-7 -8 -15 -8 -17 0 -18 2 -9 25 5 13 8 14 15 3 5 -7 9 -16 9 -20z"/>
<path d="M3213 1910 c0 -30 2 -43 4 -27 2 15 2 39 0 55 -2 15 -4 2 -4 -28z"/>
</g>
</svg>
